<mxfile modified="2021-06-13T14:05:05.691Z" host="app.diagrams.net" agent="5.0 (Windows NT 10.0; Win64; x64) AppleWebKit/537.36 (KHTML, like Gecko) Chrome/91.0.4472.77 Safari/537.36" etag="0tVip9-jLkLFrZWeTTy7" version="14.7.5" type="github">
  <diagram id="Ht1M8jgEwFfnCIfOTk4-" name="Page-1">
    <mxGraphModel dx="634" dy="249" grid="1" gridSize="10" guides="1" tooltips="1" connect="1" arrows="1" fold="1" page="1" pageScale="1" pageWidth="1169" pageHeight="827" math="0" shadow="0">
      <root>
        <mxCell id="0" />
        <mxCell id="1" parent="0" />
        <mxCell id="UEzPUAAOIrF-is8g5C7q-128" style="edgeStyle=orthogonalEdgeStyle;rounded=0;orthogonalLoop=1;jettySize=auto;html=1;startArrow=open;startFill=0;endArrow=open;endFill=0;strokeWidth=2;strokeColor=#808080;" parent="1" source="UEzPUAAOIrF-is8g5C7q-109" target="UEzPUAAOIrF-is8g5C7q-114" edge="1">
          <mxGeometry relative="1" as="geometry">
            <Array as="points">
              <mxPoint x="310.5" y="461.5" />
              <mxPoint x="310.5" y="376.5" />
            </Array>
          </mxGeometry>
        </mxCell>
        <mxCell id="UEzPUAAOIrF-is8g5C7q-127" style="edgeStyle=orthogonalEdgeStyle;rounded=0;orthogonalLoop=1;jettySize=auto;html=1;startArrow=open;startFill=0;endArrow=open;endFill=0;strokeWidth=2;strokeColor=#808080;" parent="1" source="UEzPUAAOIrF-is8g5C7q-110" target="UEzPUAAOIrF-is8g5C7q-114" edge="1">
          <mxGeometry relative="1" as="geometry">
            <Array as="points">
              <mxPoint x="311.5" y="281.5" />
              <mxPoint x="311.5" y="361.5" />
            </Array>
          </mxGeometry>
        </mxCell>
        <mxCell id="UEzPUAAOIrF-is8g5C7q-129" style="edgeStyle=orthogonalEdgeStyle;rounded=0;orthogonalLoop=1;jettySize=auto;html=1;startArrow=open;startFill=0;endArrow=open;endFill=0;strokeWidth=2;strokeColor=#808080;" parent="1" source="UEzPUAAOIrF-is8g5C7q-114" edge="1">
          <mxGeometry relative="1" as="geometry">
            <Array as="points">
              <mxPoint x="510.5" y="391.5" />
              <mxPoint x="510.5" y="391.5" />
            </Array>
            <mxPoint x="580.5" y="391.5" as="targetPoint" />
          </mxGeometry>
        </mxCell>
        <mxCell id="UEzPUAAOIrF-is8g5C7q-109" value="UberCoffee - Customer" style="outlineConnect=0;gradientColor=none;fontColor=#545B64;strokeColor=none;fillColor=#879196;dashed=0;verticalLabelPosition=bottom;verticalAlign=top;align=center;html=1;fontSize=12;fontStyle=0;aspect=fixed;shape=mxgraph.aws4.illustration_desktop;pointerEvents=1;labelBackgroundColor=#ffffff;" parent="1" vertex="1">
          <mxGeometry x="160.5" y="415.5" width="100" height="91" as="geometry" />
        </mxCell>
        <mxCell id="UEzPUAAOIrF-is8g5C7q-110" value="UberCoffee - Customer" style="outlineConnect=0;gradientColor=none;fontColor=#545B64;strokeColor=none;fillColor=#879196;dashed=0;verticalLabelPosition=bottom;verticalAlign=top;align=center;html=1;fontSize=12;fontStyle=0;aspect=fixed;shape=mxgraph.aws4.illustration_notification;pointerEvents=1;labelBackgroundColor=#ffffff;" parent="1" vertex="1">
          <mxGeometry x="160.5" y="172.5" width="100" height="81" as="geometry" />
        </mxCell>
        <mxCell id="crM16MoAtf8uoVZ7nCeL-20" style="edgeStyle=orthogonalEdgeStyle;rounded=0;orthogonalLoop=1;jettySize=auto;html=1;" edge="1" parent="1" source="UEzPUAAOIrF-is8g5C7q-113" target="crM16MoAtf8uoVZ7nCeL-17">
          <mxGeometry relative="1" as="geometry" />
        </mxCell>
        <mxCell id="UEzPUAAOIrF-is8g5C7q-113" value="Admin Service" style="outlineConnect=0;fontColor=#232F3E;gradientColor=#F78E04;gradientDirection=north;fillColor=#D05C17;strokeColor=#ffffff;dashed=0;verticalLabelPosition=bottom;verticalAlign=top;align=center;html=1;fontSize=12;fontStyle=0;aspect=fixed;shape=mxgraph.aws4.resourceIcon;resIcon=mxgraph.aws4.lambda;labelBackgroundColor=#ffffff;spacingTop=3;" parent="1" vertex="1">
          <mxGeometry x="580" y="340" width="78" height="78" as="geometry" />
        </mxCell>
        <mxCell id="UEzPUAAOIrF-is8g5C7q-114" value="Amazon API&lt;br&gt;Gateway&lt;br&gt;" style="outlineConnect=0;fontColor=#232F3E;gradientColor=#945DF2;gradientDirection=north;fillColor=#5A30B5;strokeColor=#ffffff;dashed=0;verticalLabelPosition=bottom;verticalAlign=top;align=center;html=1;fontSize=12;fontStyle=0;aspect=fixed;shape=mxgraph.aws4.resourceIcon;resIcon=mxgraph.aws4.api_gateway;labelBackgroundColor=#ffffff;" parent="1" vertex="1">
          <mxGeometry x="369.5" y="337.5" width="78" height="78" as="geometry" />
        </mxCell>
        <mxCell id="crM16MoAtf8uoVZ7nCeL-1" value="UberCoffee Web - Amazon S3" style="outlineConnect=0;fontColor=#232F3E;gradientColor=#60A337;gradientDirection=north;fillColor=#277116;strokeColor=#ffffff;dashed=0;verticalLabelPosition=bottom;verticalAlign=top;align=center;html=1;fontSize=12;fontStyle=0;aspect=fixed;shape=mxgraph.aws4.resourceIcon;resIcon=mxgraph.aws4.s3;labelBackgroundColor=#ffffff;" vertex="1" parent="1">
          <mxGeometry x="918" y="185.5" width="80" height="80" as="geometry" />
        </mxCell>
        <mxCell id="crM16MoAtf8uoVZ7nCeL-2" value="Amazon CloudFront" style="outlineConnect=0;dashed=0;verticalLabelPosition=bottom;verticalAlign=top;align=center;html=1;shape=mxgraph.aws3.cloudfront;fillColor=#F58536;gradientColor=none;" vertex="1" parent="1">
          <mxGeometry x="570" y="172.5" width="76.5" height="93" as="geometry" />
        </mxCell>
        <mxCell id="crM16MoAtf8uoVZ7nCeL-3" value="" style="edgeStyle=segmentEdgeStyle;endArrow=classic;html=1;" edge="1" parent="1" source="crM16MoAtf8uoVZ7nCeL-1">
          <mxGeometry width="50" height="50" relative="1" as="geometry">
            <mxPoint x="530.5" y="541.5" as="sourcePoint" />
            <mxPoint x="650" y="226" as="targetPoint" />
          </mxGeometry>
        </mxCell>
        <mxCell id="crM16MoAtf8uoVZ7nCeL-4" value="" style="edgeStyle=segmentEdgeStyle;endArrow=classic;html=1;" edge="1" parent="1" source="crM16MoAtf8uoVZ7nCeL-2">
          <mxGeometry width="50" height="50" relative="1" as="geometry">
            <mxPoint x="518.2500000000002" y="261.5" as="sourcePoint" />
            <mxPoint x="280" y="219" as="targetPoint" />
          </mxGeometry>
        </mxCell>
        <mxCell id="crM16MoAtf8uoVZ7nCeL-5" value="Pending:&lt;br&gt;- Define the steps to login&lt;br&gt;- Load Balancing" style="text;html=1;strokeColor=none;fillColor=none;align=center;verticalAlign=middle;whiteSpace=wrap;rounded=0;" vertex="1" parent="1">
          <mxGeometry x="930" y="70" width="190" height="90" as="geometry" />
        </mxCell>
        <mxCell id="crM16MoAtf8uoVZ7nCeL-21" style="edgeStyle=orthogonalEdgeStyle;rounded=0;orthogonalLoop=1;jettySize=auto;html=1;" edge="1" parent="1" source="crM16MoAtf8uoVZ7nCeL-6" target="crM16MoAtf8uoVZ7nCeL-18">
          <mxGeometry relative="1" as="geometry" />
        </mxCell>
        <mxCell id="crM16MoAtf8uoVZ7nCeL-6" value="Customer Service" style="outlineConnect=0;fontColor=#232F3E;gradientColor=#F78E04;gradientDirection=north;fillColor=#D05C17;strokeColor=#ffffff;dashed=0;verticalLabelPosition=bottom;verticalAlign=top;align=center;html=1;fontSize=12;fontStyle=0;aspect=fixed;shape=mxgraph.aws4.resourceIcon;resIcon=mxgraph.aws4.lambda;labelBackgroundColor=#ffffff;spacingTop=3;" vertex="1" parent="1">
          <mxGeometry x="580" y="470" width="78" height="78" as="geometry" />
        </mxCell>
        <mxCell id="crM16MoAtf8uoVZ7nCeL-7" style="edgeStyle=orthogonalEdgeStyle;rounded=0;orthogonalLoop=1;jettySize=auto;html=1;startArrow=open;startFill=0;endArrow=open;endFill=0;strokeWidth=2;strokeColor=#808080;" edge="1" parent="1" target="crM16MoAtf8uoVZ7nCeL-6">
          <mxGeometry relative="1" as="geometry">
            <Array as="points">
              <mxPoint x="500" y="520" />
            </Array>
            <mxPoint x="450" y="410" as="sourcePoint" />
            <mxPoint x="630.5" y="459" as="targetPoint" />
          </mxGeometry>
        </mxCell>
        <mxCell id="crM16MoAtf8uoVZ7nCeL-22" style="edgeStyle=orthogonalEdgeStyle;rounded=0;orthogonalLoop=1;jettySize=auto;html=1;" edge="1" parent="1" source="crM16MoAtf8uoVZ7nCeL-9" target="crM16MoAtf8uoVZ7nCeL-19">
          <mxGeometry relative="1" as="geometry" />
        </mxCell>
        <mxCell id="crM16MoAtf8uoVZ7nCeL-9" value="" style="swimlane;startSize=0;" vertex="1" parent="1">
          <mxGeometry x="560" y="610" width="250" height="300" as="geometry" />
        </mxCell>
        <mxCell id="crM16MoAtf8uoVZ7nCeL-8" value="Managed Amazon EKS Cluster" style="points=[[0,0,0],[0.25,0,0],[0.5,0,0],[0.75,0,0],[1,0,0],[0,1,0],[0.25,1,0],[0.5,1,0],[0.75,1,0],[1,1,0],[0,0.25,0],[0,0.5,0],[0,0.75,0],[1,0.25,0],[1,0.5,0],[1,0.75,0]];outlineConnect=0;fontColor=#232F3E;gradientColor=#F78E04;gradientDirection=north;fillColor=#D05C17;strokeColor=#ffffff;dashed=0;verticalLabelPosition=bottom;verticalAlign=top;align=center;html=1;fontSize=12;fontStyle=0;aspect=fixed;shape=mxgraph.aws4.resourceIcon;resIcon=mxgraph.aws4.eks;" vertex="1" parent="crM16MoAtf8uoVZ7nCeL-9">
          <mxGeometry x="50" width="78" height="78" as="geometry" />
        </mxCell>
        <mxCell id="crM16MoAtf8uoVZ7nCeL-10" value="" style="rounded=0;whiteSpace=wrap;html=1;dashed=1;" vertex="1" parent="crM16MoAtf8uoVZ7nCeL-9">
          <mxGeometry x="80" y="110" width="120" height="150" as="geometry" />
        </mxCell>
        <mxCell id="crM16MoAtf8uoVZ7nCeL-11" value="Deployment - Orders" style="text;html=1;strokeColor=none;fillColor=none;align=center;verticalAlign=middle;whiteSpace=wrap;rounded=0;dashed=1;" vertex="1" parent="crM16MoAtf8uoVZ7nCeL-9">
          <mxGeometry x="70" y="270" width="140" height="20" as="geometry" />
        </mxCell>
        <mxCell id="crM16MoAtf8uoVZ7nCeL-12" value="Pods - Orders" style="rounded=0;whiteSpace=wrap;html=1;" vertex="1" parent="crM16MoAtf8uoVZ7nCeL-9">
          <mxGeometry x="105" y="200" width="70" height="40" as="geometry" />
        </mxCell>
        <mxCell id="crM16MoAtf8uoVZ7nCeL-13" value="Pods - Orders" style="rounded=0;whiteSpace=wrap;html=1;" vertex="1" parent="crM16MoAtf8uoVZ7nCeL-9">
          <mxGeometry x="90" y="190" width="70" height="40" as="geometry" />
        </mxCell>
        <mxCell id="crM16MoAtf8uoVZ7nCeL-14" value="Service&amp;nbsp; - Orders" style="rounded=0;whiteSpace=wrap;html=1;" vertex="1" parent="crM16MoAtf8uoVZ7nCeL-9">
          <mxGeometry x="105" y="130" width="70" height="40" as="geometry" />
        </mxCell>
        <mxCell id="crM16MoAtf8uoVZ7nCeL-15" style="edgeStyle=orthogonalEdgeStyle;rounded=0;orthogonalLoop=1;jettySize=auto;html=1;startArrow=open;startFill=0;endArrow=open;endFill=0;strokeWidth=2;strokeColor=#808080;entryX=-0.011;entryY=0.573;entryDx=0;entryDy=0;entryPerimeter=0;" edge="1" parent="1" target="crM16MoAtf8uoVZ7nCeL-9">
          <mxGeometry relative="1" as="geometry">
            <Array as="points">
              <mxPoint x="460" y="530" />
              <mxPoint x="510" y="530" />
              <mxPoint x="510" y="782" />
            </Array>
            <mxPoint x="460" y="420" as="sourcePoint" />
            <mxPoint x="590" y="530" as="targetPoint" />
          </mxGeometry>
        </mxCell>
        <mxCell id="crM16MoAtf8uoVZ7nCeL-16" value="" style="edgeStyle=segmentEdgeStyle;endArrow=classic;html=1;exitX=0.007;exitY=0.613;exitDx=0;exitDy=0;exitPerimeter=0;" edge="1" parent="1" source="crM16MoAtf8uoVZ7nCeL-2">
          <mxGeometry width="50" height="50" relative="1" as="geometry">
            <mxPoint x="360" y="236" as="sourcePoint" />
            <mxPoint x="270" y="450" as="targetPoint" />
            <Array as="points">
              <mxPoint x="300" y="236" />
              <mxPoint x="300" y="450" />
            </Array>
          </mxGeometry>
        </mxCell>
        <mxCell id="crM16MoAtf8uoVZ7nCeL-17" value="Admin DB&lt;br&gt;[Postgres]" style="outlineConnect=0;fontColor=#232F3E;gradientColor=none;fillColor=#3334B9;strokeColor=none;dashed=0;verticalLabelPosition=bottom;verticalAlign=top;align=center;html=1;fontSize=12;fontStyle=0;aspect=fixed;pointerEvents=1;shape=mxgraph.aws4.rds_instance;" vertex="1" parent="1">
          <mxGeometry x="920" y="340" width="80" height="80" as="geometry" />
        </mxCell>
        <mxCell id="crM16MoAtf8uoVZ7nCeL-18" value="Customer DB&lt;br&gt;[Postgres]" style="outlineConnect=0;fontColor=#232F3E;gradientColor=none;fillColor=#3334B9;strokeColor=none;dashed=0;verticalLabelPosition=bottom;verticalAlign=top;align=center;html=1;fontSize=12;fontStyle=0;aspect=fixed;pointerEvents=1;shape=mxgraph.aws4.rds_instance;" vertex="1" parent="1">
          <mxGeometry x="920" y="470" width="78" height="78" as="geometry" />
        </mxCell>
        <mxCell id="crM16MoAtf8uoVZ7nCeL-19" value="Orders DB&lt;br&gt;[Postgres]" style="outlineConnect=0;fontColor=#232F3E;gradientColor=none;fillColor=#3334B9;strokeColor=none;dashed=0;verticalLabelPosition=bottom;verticalAlign=top;align=center;html=1;fontSize=12;fontStyle=0;aspect=fixed;pointerEvents=1;shape=mxgraph.aws4.rds_instance;" vertex="1" parent="1">
          <mxGeometry x="930" y="721" width="78" height="78" as="geometry" />
        </mxCell>
      </root>
    </mxGraphModel>
  </diagram>
</mxfile>
